<svg width="30" height="31" viewBox="0 0 30 31" fill="none" xmlns="http://www.w3.org/2000/svg">
<g clip-path="url(#clip0_141_791)">
<path d="M15.0245 1.36182C7.26519 1.36182 0.97522 7.65179 0.97522 15.4111C0.97522 23.1704 7.26519 29.4603 15.0245 29.4603C22.7838 29.4603 29.0737 23.1704 29.0737 15.4111C29.0737 7.65179 22.7838 1.36182 15.0245 1.36182ZM11.5853 21.2342H8.74036V12.0788H11.5853V21.2342ZM10.1453 10.9548C9.24672 10.9548 8.66573 10.3182 8.66573 9.53087C8.66573 8.72743 9.26428 8.10985 10.1819 8.10985C11.0995 8.10985 11.6614 8.72743 11.679 9.53087C11.679 10.3182 11.0995 10.9548 10.1453 10.9548ZM21.9759 21.2342H19.131V16.1604C19.131 14.9794 18.7183 14.1774 17.6894 14.1774C16.9036 14.1774 16.4367 14.7203 16.2304 15.2428C16.1543 15.4286 16.1352 15.6921 16.1352 15.954V21.2327H13.2888V14.9984C13.2888 13.8554 13.2522 12.8998 13.2142 12.0773H15.686L15.8162 13.3491H15.8733C16.2479 12.752 17.1655 11.871 18.7007 11.871C20.5725 11.871 21.9759 13.1251 21.9759 15.8208V21.2342V21.2342Z" fill="#3D445C"/>
</g>
<defs>
<clipPath id="clip0_141_791">
<rect width="29.2693" height="29.2693" fill="white" transform="translate(0.389893 0.776367)"/>
</clipPath>
</defs>
</svg>
