<svg width="30" height="31" viewBox="0 0 30 31" fill="none" xmlns="http://www.w3.org/2000/svg">
<g clip-path="url(#clip0_141_793)">
<path d="M14.9284 1.36182C7.16912 1.36182 0.87915 7.65179 0.87915 15.4111C0.87915 23.1704 7.16912 29.4603 14.9284 29.4603C22.6877 29.4603 28.9777 23.1704 28.9777 15.4111C28.9777 7.65179 22.6877 1.36182 14.9284 1.36182ZM20.6432 12.8705C20.6491 12.9905 20.6506 13.1105 20.6506 13.2276C20.6506 16.8862 17.8685 21.1025 12.7786 21.1025C11.2746 21.105 9.80184 20.673 8.53746 19.8585C8.75259 19.8849 8.97357 19.8951 9.19748 19.8951C10.4941 19.8951 11.6868 19.4546 12.6337 18.7112C12.0567 18.6999 11.4976 18.5088 11.0343 18.1646C10.571 17.8204 10.2267 17.3403 10.0492 16.7911C10.4636 16.8699 10.8905 16.8534 11.2976 16.7428C10.6713 16.6162 10.108 16.2768 9.70341 15.7823C9.29878 15.2878 9.07763 14.6685 9.07748 14.0296V13.9959C9.45066 14.2023 9.87799 14.3281 10.3317 14.3427C9.74452 13.9519 9.32888 13.3515 9.16974 12.6643C9.0106 11.9772 9.11999 11.2552 9.47554 10.646C10.1706 11.5007 11.0374 12.1999 12.0199 12.6983C13.0023 13.1967 14.0785 13.4832 15.1787 13.5393C15.0388 12.9456 15.099 12.3223 15.3499 11.7663C15.6008 11.2104 16.0284 10.7529 16.5661 10.465C17.1039 10.177 17.7217 10.0749 18.3235 10.1743C18.9253 10.2738 19.4774 10.5692 19.8939 11.0148C20.5132 10.8923 21.1071 10.6651 21.6501 10.3431C21.4437 10.9843 21.0116 11.5288 20.434 11.8753C20.9825 11.8093 21.5182 11.6618 22.0233 11.4378C21.6523 11.9937 21.1849 12.4789 20.6432 12.8705V12.8705Z" fill="#3D445C"/>
</g>
<defs>
<clipPath id="clip0_141_793">
<rect width="29.2693" height="29.2693" fill="white" transform="translate(0.293701 0.776367)"/>
</clipPath>
</defs>
</svg>
